<svg width="1600" height="980" viewBox="0 0 1600 980" fill="none" xmlns="http://www.w3.org/2000/svg">
  <rect width="1600" height="980" fill="#CFC7BA"/>
  <rect width="1600" height="980" fill="url(#paint0_linear_1_2)"/>
  <path d="M0 760C207 686 403 661 587 685C744 706 825 760 960 778C1171 807 1372 728 1600 622V980H0V760Z" fill="#6C5847" fill-opacity="0.36"/>
  <path d="M1054 149C1128 185 1202 250 1275 338C1347 426 1400 518 1432 614" stroke="#53483C" stroke-opacity="0.3" stroke-width="10" stroke-linecap="round"/>
  <path d="M1110 178C1181 220 1245 287 1302 379C1358 470 1394 557 1411 641" stroke="#766654" stroke-opacity="0.35" stroke-width="6" stroke-linecap="round"/>
  <rect x="301" y="126" width="999" height="730" rx="34" fill="url(#paint1_linear_1_2)" fill-opacity="0.26" stroke="rgba(255,255,255,0.24)"/>
  <circle cx="1262" cy="224" r="122" fill="#A58B69" fill-opacity="0.18"/>
  <defs>
    <linearGradient id="paint0_linear_1_2" x1="214" y1="92" x2="1331" y2="883" gradientUnits="userSpaceOnUse">
      <stop stop-color="#8A735C"/>
      <stop offset="0.35" stop-color="#D7CCBE"/>
      <stop offset="0.67" stop-color="#B8C6DA"/>
      <stop offset="1" stop-color="#6B7B8F"/>
    </linearGradient>
    <linearGradient id="paint1_linear_1_2" x1="420" y1="163" x2="1150" y2="782" gradientUnits="userSpaceOnUse">
      <stop stop-color="white" stop-opacity="0.22"/>
      <stop offset="1" stop-color="white" stop-opacity="0.04"/>
    </linearGradient>
  </defs>
</svg>
